<svg width="40" height="40" viewBox="0 0 40 40" fill="none" xmlns="http://www.w3.org/2000/svg">
<path d="M20 14C21.1046 14 22 13.1046 22 12C22 10.8954 21.1046 10 20 10C18.8954 10 18 10.8954 18 12C18 13.1046 18.8954 14 20 14Z" fill="black"/>
<path d="M20 22C21.1046 22 22 21.1046 22 20C22 18.8954 21.1046 18 20 18C18.8954 18 18 18.8954 18 20C18 21.1046 18.8954 22 20 22Z" fill="black"/>
<path d="M20 30C21.1046 30 22 29.1046 22 28C22 26.8954 21.1046 26 20 26C18.8954 26 18 26.8954 18 28C18 29.1046 18.8954 30 20 30Z" fill="black"/>
</svg>
