<svg width="40" height="40" viewBox="0 0 40 40" fill="none" xmlns="http://www.w3.org/2000/svg">
<path d="M18.9286 20C18.9286 20.2842 19.0415 20.5567 19.2424 20.7576C19.4433 20.9585 19.7158 21.0714 20 21.0714C20.2842 21.0714 20.5567 20.9585 20.7576 20.7576C20.9585 20.5567 21.0714 20.2842 21.0714 20C21.0714 19.7158 20.9585 19.4433 20.7576 19.2424C20.5567 19.0415 20.2842 18.9286 20 18.9286C19.7158 18.9286 19.4433 19.0415 19.2424 19.2424C19.0415 19.4433 18.9286 19.7158 18.9286 20ZM23.3928 20C23.3928 20.2842 23.5057 20.5567 23.7066 20.7576C23.9076 20.9585 24.1801 21.0714 24.4642 21.0714C24.7484 21.0714 25.0209 20.9585 25.2218 20.7576C25.4228 20.5567 25.5356 20.2842 25.5356 20C25.5356 19.7158 25.4228 19.4433 25.2218 19.2424C25.0209 19.0415 24.7484 18.9286 24.4642 18.9286C24.1801 18.9286 23.9076 19.0415 23.7066 19.2424C23.5057 19.4433 23.3928 19.7158 23.3928 20ZM14.4644 20C14.4644 20.2842 14.5772 20.5567 14.7782 20.7576C14.9791 20.9585 15.2516 21.0714 15.5358 21.0714C15.8199 21.0714 16.0924 20.9585 16.2934 20.7576C16.4943 20.5567 16.6072 20.2842 16.6072 20C16.6072 19.7158 16.4943 19.4433 16.2934 19.2424C16.0924 19.0415 15.8199 18.9286 15.5358 18.9286C15.2516 18.9286 14.9791 19.0415 14.7782 19.2424C14.5772 19.4433 14.4644 19.7158 14.4644 20ZM29.2231 16.125C28.7186 14.9263 27.9954 13.8504 27.0736 12.9263C26.1582 12.0076 25.0714 11.2773 23.875 10.7768C22.6473 10.2612 21.3437 10 20 10H19.9554C18.6027 10.0067 17.2924 10.2746 16.0603 10.8013C14.8741 11.307 13.7975 12.0386 12.8907 12.9554C11.9778 13.8772 11.2613 14.9487 10.7657 16.1429C10.2524 17.3795 9.99343 18.6942 10.0001 20.0469C10.0077 21.597 10.3744 23.1243 11.0715 24.5089V27.9018C11.0715 28.1741 11.1797 28.4353 11.3723 28.6278C11.5648 28.8204 11.826 28.9286 12.0983 28.9286H15.4934C16.8779 29.6257 18.4052 29.9924 19.9554 30H20.0022C21.3393 30 22.6361 29.7411 23.8571 29.2344C25.0475 28.7398 26.1302 28.0181 27.0446 27.1094C27.9664 26.1964 28.6919 25.1295 29.1985 23.9397C29.7253 22.7076 29.9932 21.3973 29.9999 20.0446C30.0066 18.6853 29.7432 17.3661 29.2231 16.125ZM25.8504 25.9018C24.2857 27.4509 22.2098 28.3036 20 28.3036H19.9621C18.6161 28.2969 17.2791 27.9621 16.0983 27.3326L15.9108 27.2321H12.7679V24.0893L12.6675 23.9018C12.038 22.721 11.7032 21.3839 11.6965 20.0379C11.6876 17.8125 12.538 15.7232 14.0983 14.1496C15.6563 12.5759 17.7389 11.7054 19.9643 11.6964H20.0022C21.1183 11.6964 22.2009 11.9129 23.2209 12.3415C24.2165 12.7589 25.1093 13.3594 25.8772 14.1272C26.6428 14.8929 27.2454 15.7879 27.6629 16.7835C28.0959 17.8147 28.3124 18.9085 28.3079 20.0379C28.2945 22.2612 27.4218 24.3438 25.8504 25.9018Z" fill="black"/>
</svg>
