<svg width="40" height="40" viewBox="0 0 40 40" fill="none" xmlns="http://www.w3.org/2000/svg">
<path d="M20.0005 12.561C18.9109 11.5591 17.4847 11.003 16.0045 11.003C15.221 11.0038 14.4454 11.1596 13.7224 11.4613C12.9994 11.763 12.3431 12.2047 11.7915 12.761C9.43847 15.124 9.43947 18.82 11.7935 21.173L19.1255 28.505C19.2955 28.804 19.6235 28.997 20.0005 28.997C20.1553 28.9955 20.3076 28.9577 20.4451 28.8867C20.5827 28.8156 20.7016 28.7133 20.7925 28.588L28.2075 21.173C30.5615 18.819 30.5615 15.124 28.2055 12.757C27.6541 12.2017 26.9984 11.7609 26.276 11.4599C25.5537 11.1589 24.779 11.0036 23.9965 11.003C22.5163 11.0032 21.0902 11.5593 20.0005 12.561ZM26.7915 14.171C28.3545 15.742 28.3555 18.196 26.7935 19.759L20.0005 26.552L13.2075 19.759C11.6455 18.196 11.6465 15.742 13.2055 14.175C13.9655 13.419 14.9595 13.003 16.0045 13.003C17.0495 13.003 18.0395 13.419 18.7935 14.173L19.2935 14.673C19.3863 14.7659 19.4965 14.8397 19.6178 14.89C19.7391 14.9403 19.8691 14.9662 20.0005 14.9662C20.1318 14.9662 20.2618 14.9403 20.3832 14.89C20.5045 14.8397 20.6147 14.7659 20.7075 14.673L21.2075 14.173C22.7195 12.664 25.2815 12.668 26.7915 14.171Z" fill="black"/>
</svg>
