<svg width="40" height="40" viewBox="0 0 40 40" fill="none" xmlns="http://www.w3.org/2000/svg">
<path d="M11.7125 29.2897C11.7922 29.2993 11.8728 29.2993 11.9525 29.2897L15.9525 28.2897C16.1299 28.2475 16.2925 28.1576 16.4225 28.0297L28.7125 15.6997C29.085 15.325 29.2941 14.818 29.2941 14.2897C29.2941 13.7613 29.085 13.2544 28.7125 12.8797L27.1325 11.2897C26.9467 11.1037 26.7262 10.9562 26.4834 10.8556C26.2406 10.7549 25.9803 10.7031 25.7175 10.7031C25.4546 10.7031 25.1944 10.7549 24.9516 10.8556C24.7088 10.9562 24.4882 11.1037 24.3025 11.2897L12.0125 23.5797C11.8833 23.7103 11.7902 23.8723 11.7425 24.0497L10.7425 28.0497C10.7065 28.1791 10.697 28.3144 10.7145 28.4475C10.732 28.5807 10.7761 28.7089 10.8442 28.8246C10.9124 28.9404 11.0031 29.0412 11.111 29.1211C11.219 29.201 11.3419 29.2583 11.4725 29.2897C11.5522 29.2993 11.6328 29.2993 11.7125 29.2897ZM25.7125 12.6997L27.3025 14.2897L25.7125 15.8797L24.1325 14.2897L25.7125 12.6997ZM13.6225 24.7997L22.7125 15.6997L24.3025 17.2897L15.2025 26.3897L13.0925 26.9097L13.6225 24.7997Z" fill="black"/>
</svg>
