<svg width="41" height="40" viewBox="0 0 41 40" fill="none" xmlns="http://www.w3.org/2000/svg">
<path d="M14.4747 22.9757C15.3498 22.9707 16.1915 22.639 16.8347 22.0457L23.0947 25.6257C23.015 25.902 22.9746 26.1881 22.9747 26.4757C22.9683 27.2872 23.2417 28.0762 23.7489 28.7097C24.2561 29.3433 24.9661 29.7827 25.7594 29.9541C26.5527 30.1254 27.3807 30.0181 28.1042 29.6504C28.8277 29.2826 29.4023 28.6768 29.7314 27.935C30.0605 27.1931 30.1239 26.3605 29.9109 25.5774C29.698 24.7942 29.2217 24.1084 28.5622 23.6353C27.9028 23.1623 27.1005 22.9309 26.2904 22.9801C25.4804 23.0294 24.712 23.3562 24.1147 23.9057L17.8547 20.3257C17.9303 20.0792 17.9707 19.8234 17.9747 19.5657L24.1247 16.0457C24.7188 16.5825 25.4794 16.8988 26.2789 16.9414C27.0785 16.984 27.8684 16.7504 28.5161 16.2797C29.1639 15.8091 29.6301 15.13 29.8366 14.3564C30.0431 13.5828 29.9773 12.7617 29.6503 12.0308C29.3232 11.3 28.7548 10.7038 28.0404 10.3423C27.326 9.98078 26.509 9.87592 25.7264 10.0453C24.9438 10.2147 24.2433 10.648 23.7423 11.2726C23.2413 11.8971 22.9703 12.675 22.9747 13.4757C22.9781 13.763 23.0184 14.0487 23.0947 14.3257L17.4047 17.5757C17.075 17.0656 16.6183 16.6501 16.0794 16.3701C15.5405 16.09 14.938 15.955 14.3311 15.9783C13.7243 16.0015 13.1339 16.1823 12.618 16.5029C12.1022 16.8234 11.6786 17.2727 11.389 17.8065C11.0994 18.3403 10.9536 18.9403 10.9661 19.5475C10.9785 20.1547 11.1488 20.7482 11.4601 21.2697C11.7714 21.7911 12.213 22.2226 12.7415 22.5217C13.2701 22.8209 13.8674 22.9773 14.4747 22.9757ZM26.4747 24.9757C26.7714 24.9757 27.0614 25.0636 27.3081 25.2285C27.5547 25.3933 27.747 25.6276 27.8605 25.9016C27.9741 26.1757 28.0038 26.4773 27.9459 26.7683C27.888 27.0593 27.7451 27.3265 27.5354 27.5363C27.3256 27.7461 27.0583 27.889 26.7673 27.9468C26.4764 28.0047 26.1748 27.975 25.9007 27.8615C25.6266 27.748 25.3923 27.5557 25.2275 27.309C25.0627 27.0623 24.9747 26.7723 24.9747 26.4757C24.9747 26.0778 25.1327 25.6963 25.4141 25.415C25.6954 25.1337 26.0769 24.9757 26.4747 24.9757ZM26.4747 11.9757C26.7714 11.9757 27.0614 12.0636 27.3081 12.2285C27.5547 12.3933 27.747 12.6276 27.8605 12.9016C27.9741 13.1757 28.0038 13.4773 27.9459 13.7683C27.888 14.0593 27.7451 14.3265 27.5354 14.5363C27.3256 14.7461 27.0583 14.889 26.7673 14.9468C26.4764 15.0047 26.1748 14.975 25.9007 14.8615C25.6266 14.748 25.3923 14.5557 25.2275 14.309C25.0627 14.0623 24.9747 13.7723 24.9747 13.4757C24.9747 13.0778 25.1327 12.6963 25.4141 12.415C25.6954 12.1337 26.0769 11.9757 26.4747 11.9757ZM14.4747 17.9757C14.7714 17.9757 15.0614 18.0636 15.3081 18.2285C15.5547 18.3933 15.747 18.6276 15.8605 18.9016C15.9741 19.1757 16.0038 19.4773 15.9459 19.7683C15.888 20.0593 15.7452 20.3265 15.5354 20.5363C15.3256 20.7461 15.0583 20.889 14.7673 20.9468C14.4764 21.0047 14.1748 20.975 13.9007 20.8615C13.6266 20.748 13.3923 20.5557 13.2275 20.309C13.0627 20.0623 12.9747 19.7723 12.9747 19.4757C12.9747 19.0778 13.1327 18.6963 13.4141 18.415C13.6954 18.1337 14.0769 17.9757 14.4747 17.9757Z" fill="black"/>
</svg>
